# xmcd
#
# Track frame offsets:
#	150
#	14200
#	29832
#	46234
#	61905
#	83373
#	106207
#	122439
#	142053
#	161151
#	178175
#	194182
#
# Disc length: 2942 seconds
#
# Revision: 1
# Processed by: cddbd v1.5.2PL0 Copyright (c) Steve Scherf et al.
# Submitted via: audiograbber 1.83.01
#
DISCID=ad0b7c0c
DTITLE=Mikko Pohjola - Menk‰‰ Te, Min‰ J‰‰n
DYEAR=2011
DGENRE=Pop
TTITLE0=T‰m‰ On Hyvin N‰in
TTITLE1=Se Joka Pelk‰‰
TTITLE2=Palasista Koottu Peli
TTITLE3=Paikkani Tied‰n
TTITLE4=Tuulia
TTITLE5=Madrid
TTITLE6=Ihmisvihaaja
TTITLE7=Et N‰‰
TTITLE8=Pullopostia
TTITLE9=Min‰ Kuulin Sinusta
TTITLE10=Ei Riit‰
TTITLE11=Menk‰‰ Te, Min‰ J‰‰n
EXTD=TR.
EXTT0=
EXTT1=
EXTT2=
EXTT3=
EXTT4=
EXTT5=
EXTT6=
EXTT7=
EXTT8=
EXTT9=
EXTT10=
EXTT11=
PLAYORDER=
